<mxfile host="app.diagrams.net" modified="2023-05-27T03:02:04.053Z" agent="Mozilla/5.0 (Windows NT 10.0; Win64; x64) AppleWebKit/537.36 (KHTML, like Gecko) Chrome/111.0.0.0 Safari/537.36" etag="L7kD7pNvdC2gmHVj8HwF" version="21.3.4" type="device">
  <diagram name="Page-1" id="0783ab3e-0a74-02c8-0abd-f7b4e66b4bec">
    <mxGraphModel dx="1006" dy="546" grid="1" gridSize="10" guides="1" tooltips="1" connect="1" arrows="1" fold="1" page="1" pageScale="1" pageWidth="850" pageHeight="1100" background="none" math="0" shadow="0">
      <root>
        <mxCell id="0" />
        <mxCell id="1" parent="0" />
        <mxCell id="1c1d494c118603dd-1" value="Chức năng báo rác đầy" style="swimlane;html=1;childLayout=stackLayout;startSize=20;rounded=0;shadow=0;comic=0;labelBackgroundColor=none;strokeWidth=1;fontFamily=Verdana;fontSize=12;align=center;" parent="1" vertex="1">
          <mxGeometry x="40" y="20" width="770" height="990" as="geometry" />
        </mxCell>
        <mxCell id="1c1d494c118603dd-2" value="Web" style="swimlane;html=1;startSize=20;" parent="1c1d494c118603dd-1" vertex="1">
          <mxGeometry y="20" width="150" height="970" as="geometry" />
        </mxCell>
        <mxCell id="fsxHYtEibgcbsbuByhfP-45" value="Hiển thị message báo rác đầy lên giao diện web" style="rounded=0;whiteSpace=wrap;html=1;" vertex="1" parent="1c1d494c118603dd-2">
          <mxGeometry x="15" y="790" width="120" height="60" as="geometry" />
        </mxCell>
        <mxCell id="1c1d494c118603dd-3" value="Server" style="swimlane;html=1;startSize=20;" parent="1c1d494c118603dd-1" vertex="1">
          <mxGeometry x="150" y="20" width="160" height="970" as="geometry" />
        </mxCell>
        <mxCell id="fsxHYtEibgcbsbuByhfP-42" value="" style="edgeStyle=orthogonalEdgeStyle;rounded=0;orthogonalLoop=1;jettySize=auto;html=1;" edge="1" parent="1c1d494c118603dd-3" source="fsxHYtEibgcbsbuByhfP-39" target="fsxHYtEibgcbsbuByhfP-41">
          <mxGeometry relative="1" as="geometry" />
        </mxCell>
        <mxCell id="fsxHYtEibgcbsbuByhfP-39" value="Nhận request từ ESP8266" style="rounded=0;whiteSpace=wrap;html=1;" vertex="1" parent="1c1d494c118603dd-3">
          <mxGeometry x="20" y="610" width="120" height="60" as="geometry" />
        </mxCell>
        <mxCell id="fsxHYtEibgcbsbuByhfP-44" value="" style="edgeStyle=orthogonalEdgeStyle;rounded=0;orthogonalLoop=1;jettySize=auto;html=1;" edge="1" parent="1c1d494c118603dd-3" source="fsxHYtEibgcbsbuByhfP-41" target="fsxHYtEibgcbsbuByhfP-43">
          <mxGeometry relative="1" as="geometry" />
        </mxCell>
        <mxCell id="fsxHYtEibgcbsbuByhfP-41" value="Lưu trạng thái rác &lt;br&gt;vào cơ sở dữ liệu" style="whiteSpace=wrap;html=1;rounded=0;" vertex="1" parent="1c1d494c118603dd-3">
          <mxGeometry x="20" y="700" width="120" height="60" as="geometry" />
        </mxCell>
        <mxCell id="fsxHYtEibgcbsbuByhfP-48" value="" style="edgeStyle=orthogonalEdgeStyle;rounded=0;orthogonalLoop=1;jettySize=auto;html=1;" edge="1" parent="1c1d494c118603dd-3" source="fsxHYtEibgcbsbuByhfP-43" target="fsxHYtEibgcbsbuByhfP-47">
          <mxGeometry relative="1" as="geometry" />
        </mxCell>
        <mxCell id="fsxHYtEibgcbsbuByhfP-43" value="Gửi message websocket đến web&amp;nbsp;" style="whiteSpace=wrap;html=1;rounded=0;" vertex="1" parent="1c1d494c118603dd-3">
          <mxGeometry x="20" y="790" width="120" height="60" as="geometry" />
        </mxCell>
        <mxCell id="fsxHYtEibgcbsbuByhfP-47" value="Gửi response về cho ESP8266" style="whiteSpace=wrap;html=1;rounded=0;" vertex="1" parent="1c1d494c118603dd-3">
          <mxGeometry x="20" y="880" width="120" height="60" as="geometry" />
        </mxCell>
        <mxCell id="1c1d494c118603dd-4" value="Phần cứng ( ESP8266 )" style="swimlane;html=1;startSize=20;" parent="1c1d494c118603dd-1" vertex="1">
          <mxGeometry x="310" y="20" width="460" height="970" as="geometry" />
        </mxCell>
        <mxCell id="fsxHYtEibgcbsbuByhfP-6" value="" style="edgeStyle=orthogonalEdgeStyle;rounded=0;orthogonalLoop=1;jettySize=auto;html=1;" edge="1" parent="1c1d494c118603dd-4" source="60571a20871a0731-4" target="fsxHYtEibgcbsbuByhfP-5">
          <mxGeometry relative="1" as="geometry" />
        </mxCell>
        <mxCell id="60571a20871a0731-4" value="" style="ellipse;whiteSpace=wrap;html=1;rounded=0;shadow=0;comic=0;labelBackgroundColor=none;strokeWidth=1;fillColor=#000000;fontFamily=Verdana;fontSize=12;align=center;" parent="1c1d494c118603dd-4" vertex="1">
          <mxGeometry x="287.5" y="30" width="40" height="40" as="geometry" />
        </mxCell>
        <mxCell id="fsxHYtEibgcbsbuByhfP-8" value="" style="edgeStyle=orthogonalEdgeStyle;rounded=0;orthogonalLoop=1;jettySize=auto;html=1;" edge="1" parent="1c1d494c118603dd-4" source="fsxHYtEibgcbsbuByhfP-5" target="fsxHYtEibgcbsbuByhfP-7">
          <mxGeometry relative="1" as="geometry" />
        </mxCell>
        <mxCell id="fsxHYtEibgcbsbuByhfP-5" value="ESP8266 sẵn sàng hoạt động" style="rounded=0;whiteSpace=wrap;html=1;" vertex="1" parent="1c1d494c118603dd-4">
          <mxGeometry x="247.5" y="100" width="120" height="60" as="geometry" />
        </mxCell>
        <mxCell id="fsxHYtEibgcbsbuByhfP-10" value="" style="edgeStyle=orthogonalEdgeStyle;rounded=0;orthogonalLoop=1;jettySize=auto;html=1;" edge="1" parent="1c1d494c118603dd-4" source="fsxHYtEibgcbsbuByhfP-7" target="fsxHYtEibgcbsbuByhfP-9">
          <mxGeometry relative="1" as="geometry" />
        </mxCell>
        <mxCell id="fsxHYtEibgcbsbuByhfP-7" value="Cảm biến siêu âm&lt;br&gt;ở hai bên thùng tính khoảng cách" style="whiteSpace=wrap;html=1;rounded=0;" vertex="1" parent="1c1d494c118603dd-4">
          <mxGeometry x="47.5" y="100" width="120" height="60" as="geometry" />
        </mxCell>
        <mxCell id="fsxHYtEibgcbsbuByhfP-12" value="" style="edgeStyle=orthogonalEdgeStyle;rounded=0;orthogonalLoop=1;jettySize=auto;html=1;" edge="1" parent="1c1d494c118603dd-4" source="fsxHYtEibgcbsbuByhfP-9" target="fsxHYtEibgcbsbuByhfP-11">
          <mxGeometry relative="1" as="geometry" />
        </mxCell>
        <mxCell id="fsxHYtEibgcbsbuByhfP-9" value="Kiểm tra trạng thái rác hiện tại" style="rounded=0;whiteSpace=wrap;html=1;" vertex="1" parent="1c1d494c118603dd-4">
          <mxGeometry x="47.5" y="220" width="120" height="60" as="geometry" />
        </mxCell>
        <mxCell id="fsxHYtEibgcbsbuByhfP-17" value="" style="edgeStyle=orthogonalEdgeStyle;rounded=0;orthogonalLoop=1;jettySize=auto;html=1;" edge="1" parent="1c1d494c118603dd-4" source="fsxHYtEibgcbsbuByhfP-11" target="fsxHYtEibgcbsbuByhfP-16">
          <mxGeometry relative="1" as="geometry" />
        </mxCell>
        <mxCell id="fsxHYtEibgcbsbuByhfP-31" value="" style="edgeStyle=orthogonalEdgeStyle;rounded=0;orthogonalLoop=1;jettySize=auto;html=1;" edge="1" parent="1c1d494c118603dd-4" source="fsxHYtEibgcbsbuByhfP-11" target="fsxHYtEibgcbsbuByhfP-25">
          <mxGeometry relative="1" as="geometry" />
        </mxCell>
        <mxCell id="fsxHYtEibgcbsbuByhfP-11" value="Nếu thùng rác đầy" style="rhombus;whiteSpace=wrap;html=1;rounded=0;" vertex="1" parent="1c1d494c118603dd-4">
          <mxGeometry x="30" y="350" width="155" height="70" as="geometry" />
        </mxCell>
        <mxCell id="fsxHYtEibgcbsbuByhfP-15" value="False" style="text;html=1;strokeColor=none;fillColor=none;align=center;verticalAlign=middle;whiteSpace=wrap;rounded=0;" vertex="1" parent="1c1d494c118603dd-4">
          <mxGeometry x="157.5" y="350" width="60" height="30" as="geometry" />
        </mxCell>
        <mxCell id="fsxHYtEibgcbsbuByhfP-16" value="Khoảng cách &lt;br&gt;với rác &amp;lt; 8 cm &lt;br&gt;trong 10 giây" style="rhombus;whiteSpace=wrap;html=1;rounded=0;" vertex="1" parent="1c1d494c118603dd-4">
          <mxGeometry x="220" y="340" width="175" height="90" as="geometry" />
        </mxCell>
        <mxCell id="fsxHYtEibgcbsbuByhfP-19" value="" style="edgeStyle=orthogonalEdgeStyle;rounded=0;orthogonalLoop=1;jettySize=auto;html=1;exitX=1;exitY=0.5;exitDx=0;exitDy=0;entryX=1;entryY=0.5;entryDx=0;entryDy=0;" edge="1" parent="1c1d494c118603dd-4" source="fsxHYtEibgcbsbuByhfP-16" target="fsxHYtEibgcbsbuByhfP-9">
          <mxGeometry relative="1" as="geometry">
            <mxPoint x="117.5" y="290" as="sourcePoint" />
            <mxPoint x="117.5" y="360" as="targetPoint" />
            <Array as="points">
              <mxPoint x="450" y="385" />
              <mxPoint x="450" y="250" />
            </Array>
          </mxGeometry>
        </mxCell>
        <mxCell id="fsxHYtEibgcbsbuByhfP-21" value="False" style="text;html=1;strokeColor=none;fillColor=none;align=center;verticalAlign=middle;whiteSpace=wrap;rounded=0;" vertex="1" parent="1c1d494c118603dd-4">
          <mxGeometry x="377.5" y="350" width="60" height="30" as="geometry" />
        </mxCell>
        <mxCell id="fsxHYtEibgcbsbuByhfP-32" value="" style="edgeStyle=orthogonalEdgeStyle;rounded=0;orthogonalLoop=1;jettySize=auto;html=1;" edge="1" parent="1c1d494c118603dd-4" source="fsxHYtEibgcbsbuByhfP-25" target="fsxHYtEibgcbsbuByhfP-29">
          <mxGeometry relative="1" as="geometry" />
        </mxCell>
        <mxCell id="fsxHYtEibgcbsbuByhfP-25" value="Khoảng cách &lt;br&gt;với rác &amp;gt; 8 cm &lt;br&gt;trong 10 giây" style="rhombus;whiteSpace=wrap;html=1;rounded=0;" vertex="1" parent="1c1d494c118603dd-4">
          <mxGeometry x="30" y="465" width="155" height="90" as="geometry" />
        </mxCell>
        <mxCell id="fsxHYtEibgcbsbuByhfP-28" value="True" style="text;html=1;strokeColor=none;fillColor=none;align=center;verticalAlign=middle;whiteSpace=wrap;rounded=0;" vertex="1" parent="1c1d494c118603dd-4">
          <mxGeometry x="107.5" y="420" width="60" height="30" as="geometry" />
        </mxCell>
        <mxCell id="fsxHYtEibgcbsbuByhfP-29" value="Gửi tình trạng thùng rác đến server thông qua HTTP POST" style="rounded=0;whiteSpace=wrap;html=1;" vertex="1" parent="1c1d494c118603dd-4">
          <mxGeometry x="36.25" y="610" width="142.5" height="60" as="geometry" />
        </mxCell>
        <mxCell id="fsxHYtEibgcbsbuByhfP-34" value="" style="edgeStyle=orthogonalEdgeStyle;rounded=0;orthogonalLoop=1;jettySize=auto;html=1;exitX=0;exitY=0.5;exitDx=0;exitDy=0;entryX=0;entryY=0.5;entryDx=0;entryDy=0;" edge="1" parent="1c1d494c118603dd-4" source="fsxHYtEibgcbsbuByhfP-25" target="fsxHYtEibgcbsbuByhfP-9">
          <mxGeometry relative="1" as="geometry">
            <mxPoint x="118" y="290" as="sourcePoint" />
            <mxPoint x="118" y="360" as="targetPoint" />
          </mxGeometry>
        </mxCell>
        <mxCell id="fsxHYtEibgcbsbuByhfP-35" value="False" style="text;html=1;strokeColor=none;fillColor=none;align=center;verticalAlign=middle;whiteSpace=wrap;rounded=0;" vertex="1" parent="1c1d494c118603dd-4">
          <mxGeometry x="10" y="470" width="60" height="30" as="geometry" />
        </mxCell>
        <mxCell id="fsxHYtEibgcbsbuByhfP-36" value="True" style="text;html=1;strokeColor=none;fillColor=none;align=center;verticalAlign=middle;whiteSpace=wrap;rounded=0;" vertex="1" parent="1c1d494c118603dd-4">
          <mxGeometry x="107.5" y="555" width="60" height="30" as="geometry" />
        </mxCell>
        <mxCell id="fsxHYtEibgcbsbuByhfP-37" value="" style="edgeStyle=orthogonalEdgeStyle;rounded=0;orthogonalLoop=1;jettySize=auto;html=1;exitX=0.5;exitY=1;exitDx=0;exitDy=0;entryX=1;entryY=0.5;entryDx=0;entryDy=0;" edge="1" parent="1c1d494c118603dd-4" source="fsxHYtEibgcbsbuByhfP-16" target="fsxHYtEibgcbsbuByhfP-29">
          <mxGeometry relative="1" as="geometry">
            <mxPoint x="118" y="565" as="sourcePoint" />
            <mxPoint x="118" y="620" as="targetPoint" />
          </mxGeometry>
        </mxCell>
        <mxCell id="fsxHYtEibgcbsbuByhfP-38" value="True" style="text;html=1;strokeColor=none;fillColor=none;align=center;verticalAlign=middle;whiteSpace=wrap;rounded=0;" vertex="1" parent="1c1d494c118603dd-4">
          <mxGeometry x="307.5" y="430" width="60" height="30" as="geometry" />
        </mxCell>
        <mxCell id="fsxHYtEibgcbsbuByhfP-50" value="Nhận response từ server" style="rounded=0;whiteSpace=wrap;html=1;" vertex="1" parent="1c1d494c118603dd-4">
          <mxGeometry x="36.25" y="880" width="142.5" height="60" as="geometry" />
        </mxCell>
        <mxCell id="fsxHYtEibgcbsbuByhfP-52" value="" style="edgeStyle=orthogonalEdgeStyle;rounded=0;orthogonalLoop=1;jettySize=auto;html=1;exitX=1;exitY=0.5;exitDx=0;exitDy=0;entryX=1;entryY=0.5;entryDx=0;entryDy=0;" edge="1" parent="1c1d494c118603dd-4" source="fsxHYtEibgcbsbuByhfP-50" target="fsxHYtEibgcbsbuByhfP-9">
          <mxGeometry relative="1" as="geometry">
            <mxPoint x="-10" y="920" as="sourcePoint" />
            <mxPoint x="210" y="900" as="targetPoint" />
            <Array as="points">
              <mxPoint x="450" y="910" />
              <mxPoint x="450" y="250" />
            </Array>
          </mxGeometry>
        </mxCell>
        <mxCell id="fsxHYtEibgcbsbuByhfP-40" value="" style="edgeStyle=orthogonalEdgeStyle;rounded=0;orthogonalLoop=1;jettySize=auto;html=1;" edge="1" parent="1c1d494c118603dd-1" source="fsxHYtEibgcbsbuByhfP-29" target="fsxHYtEibgcbsbuByhfP-39">
          <mxGeometry relative="1" as="geometry" />
        </mxCell>
        <mxCell id="fsxHYtEibgcbsbuByhfP-46" value="" style="edgeStyle=orthogonalEdgeStyle;rounded=0;orthogonalLoop=1;jettySize=auto;html=1;" edge="1" parent="1c1d494c118603dd-1" source="fsxHYtEibgcbsbuByhfP-43" target="fsxHYtEibgcbsbuByhfP-45">
          <mxGeometry relative="1" as="geometry" />
        </mxCell>
        <mxCell id="fsxHYtEibgcbsbuByhfP-51" value="" style="edgeStyle=orthogonalEdgeStyle;rounded=0;orthogonalLoop=1;jettySize=auto;html=1;" edge="1" parent="1c1d494c118603dd-1" source="fsxHYtEibgcbsbuByhfP-47" target="fsxHYtEibgcbsbuByhfP-50">
          <mxGeometry relative="1" as="geometry" />
        </mxCell>
      </root>
    </mxGraphModel>
  </diagram>
</mxfile>
